<?xml version="1.0" encoding="UTF-8"?> <svg xmlns="http://www.w3.org/2000/svg" width="681" height="681" viewBox="0 0 681 681" fill="none"> <path fill-rule="evenodd" clip-rule="evenodd" d="M410.384 136.73C485.87 212.217 485.87 334.605 410.384 410.091C334.897 485.578 212.509 485.578 137.022 410.091C61.5358 334.605 61.5358 212.217 137.022 136.73C212.509 61.2434 334.897 61.2434 410.384 136.73ZM381.392 381.1C440.867 321.625 440.867 225.196 381.392 165.721C321.917 106.246 225.489 106.246 166.014 165.721C106.539 225.196 106.539 321.625 166.014 381.1C225.489 440.575 321.917 440.575 381.392 381.1Z" fill="#495769"></path> <path d="M400.755 445.564C391.382 436.191 391.382 420.995 400.755 411.622L411.916 400.461C421.289 391.089 436.485 391.089 445.857 400.461L549.806 504.41C559.179 513.783 559.179 528.979 549.806 538.351L538.645 549.512C529.272 558.885 514.076 558.885 504.704 549.512L400.755 445.564Z" fill="#495769"></path> </svg> 